<svg height="512pt" viewBox="0 0 512 512.00009" width="512pt" xmlns="http://www.w3.org/2000/svg" fill="#fff"><path d="m155.429688 0h-18.285157c-10.414062-.03125-19.117187 7.914062-20.035156 18.285156h38.320313zm0 0"/><path d="m101.648438 197.722656c16.925781-32.417968 41.957031-78.78125 59.722656-104.722656-3.871094-5.898438-5.9375-12.800781-5.941406-19.855469v-36.574219h-40.347657zm0 0"/><path d="m192 91.429688h9.0625c-1.179688-61.003907-14.210938-81.28125-27.347656-88.039063v69.753906c0 10.097657 8.1875 18.285157 18.285156 18.285157zm0 0"/><path d="m356.570312 73.144531c-.003906 7.054688-2.070312 13.957031-5.941406 19.855469 17.765625 25.941406 42.796875 72.304688 59.722656 104.722656l-13.433593-161.152344h-40.347657zm0 0"/><path d="m338.285156 73.144531v-69.753906c-13.136718 6.757813-26.167968 27.035156-27.34375 88.039063h9.058594c10.097656 0 18.285156-8.1875 18.285156-18.285157zm0 0"/><path d="m365.714844 0h-9.144532v18.285156h37.488282c-5.164063-11.023437-16.171875-18.125-28.34375-18.285156zm0 0"/><path d="m82.285156 512c28.984375 0 53.769532-10.84375 63.140625-27.621094 7.078125-12.664062 5.332031-28.34375-5.019531-46.546875-6.976562-1.03125-13.792969-2.949219-20.289062-5.703125 4.453124 10.886719 7.113281 22.421875 7.882812 34.15625 0 16.941406-23.769531 27.429688-45.714844 27.429688-34.09375 0-64-38.457032-64-82.285156 0-36.976563 22.382813-66.460938 53.210938-72.074219l1.574218-18.808594c-42.25 4.785156-73.070312 42.234375-73.070312 90.882813 0 54.519531 37.6875 100.570312 82.285156 100.570312zm0 0"/><path d="m208.074219 420.570312c-8.914063-38.316406-43.503907-165.886718-110.554688-173.292968l-8.667969 104.019531c-1.476562 17.824219 4.574219 35.449219 16.683594 48.609375s29.175782 20.65625 47.058594 20.664062zm0 0"/><path d="m438.929688 320.546875 1.574218 18.808594c30.828125 5.613281 53.210938 35.097656 53.210938 72.074219 0 43.828124-29.90625 82.285156-64 82.285156-21.988282 0-45.714844-10.488282-45.714844-27.429688.769531-11.738281 3.433594-23.277344 7.882812-34.167968-6.488281 2.765624-13.304687 4.683593-20.28125 5.714843-10.359374 18.222657-12.105468 33.894531-5.027343 46.546875 9.371093 16.777344 34.15625 27.621094 63.140625 27.621094 44.597656 0 82.285156-46.050781 82.285156-100.570312 0-48.648438-30.820312-86.097657-73.070312-90.882813zm0 0"/><path d="m374.855469 267.429688v72.539062c10.921875 3.859375 18.238281 14.164062 18.289062 25.746094v9.140625c0 10.101562-8.1875 18.289062-18.289062 18.289062h-18.285157c-10.097656 0-18.285156-8.1875-18.285156-18.289062v-9.140625c.046875-11.582032 7.367188-21.886719 18.285156-25.746094v-51c-29.886718 42.917969-46.792968 106.460938-52.644531 131.601562h55.480469c17.882812-.007812 34.949219-7.503906 47.058594-20.664062s18.160156-30.785156 16.683594-48.609375l-8.667969-104.019531c-15.066407 2.160156-29 9.246094-39.625 20.152344zm0 0"/><path d="m365.714844 356.570312c-5.050782 0-9.144532 4.09375-9.144532 9.144532v9.140625h18.285157v-9.140625c0-5.050782-4.089844-9.144532-9.140625-9.144532zm0 0"/><path d="m175.09375 105.371094c-22.023438 32.777344-55.835938 97.828125-69.484375 124.570312 78.316406 15.445313 113.710937 156.117188 121.261719 190.628906h58.257812c5.714844-26.101562 27.347656-112.902343 71.441406-160.363281v-49.921875c0-5.046875 4.09375-9.140625 9.144532-9.140625 5.050781 0 9.140625 4.09375 9.140625 9.140625v33.730469c9.386719-6.890625 20.140625-11.6875 31.535156-14.074219-13.648437-26.730468-47.460937-91.792968-69.484375-124.570312-5.195312 2.8125-11 4.300781-16.90625 4.34375h-128c-5.90625-.042969-11.710938-1.53125-16.90625-4.34375zm35.191406 50.058594h91.429688c5.050781 0 9.140625 4.09375 9.140625 9.140624 0 5.050782-4.089844 9.144532-9.140625 9.144532h-91.429688c-5.050781 0-9.140625-4.09375-9.140625-9.144532 0-5.046874 4.089844-9.140624 9.140625-9.140624zm0 0"/></svg>